# xmcd
#
# Track frame offsets: 
#        150
#        13300
#        31868
#        45120
#        65928
#        78685
#        104273
#        120365
#        135750
#        153240
#        172485
#        188415
#        203660
#        221590
#        236908
#        252000
#        267928
#        285183
#        300620
#        316533
#
# Disc length: 4422 seconds
#
# Revision: 7
# Processed by: cddbd v1.5.2PL0 Copyright (c) Steve Scherf et al.
# Submitted via: ExactAudioCopyFreeDBPlugin 1.0
#
DISCID=06114414
DTITLE=Various Artist - The Complete Stax-Volt Singles, 1959-1975
DYEAR=1994
DGENRE=Soul
TTITLE0=The Newcomers - The Martian Hop
TTITLE1=Inez Foxx - I Had a Talk with My Man
TTITLE2=The Temprees - At Last
TTITLE3=Isaac Hayes - Joy (Part 1)
TTITLE4=Hot Sauce - Good Woman Turning Bad
TTITLE5=John KaSandra - Mose (Part 3)
TTITLE6=Rufus Thomas - I'll Be Your Santa Baby
TTITLE7=Eddie Floyd - I Wanna Do Things for You
TTITLE8=Albert King - That's What the Blues is All About
TTITLE9=Carolyn Hurley - One Way Love Affair
TTITLE10=Little Milton - Tin Pan Alley
TTITLE11=Rufus Thomas - The Funky Bird
TTITLE12=Johnnie Taylor - We're Getting Careless with Our Love
TTITLE13=The Emotions - What Do the Lonely Do at Christmas
TTITLE14=Cix Bits - Season's Greetings
TTITLE15=Eric Mercury - Don't Lose Faith in Me Lord
TTITLE16=Veda Brown - Don't Start Loving Me (If You're Gonna Stop)
TTITLE17=The Staple Singers - Touch a Hand, Make a Friend
TTITLE18=The Dramatics - And I Panicked
TTITLE19=Joy Fleming - Change it All
EXTD=
EXTT0=
EXTT1=
EXTT2=
EXTT3=
EXTT4=
EXTT5=
EXTT6=
EXTT7=
EXTT8=
EXTT9=
EXTT10=
EXTT11=
EXTT12=
EXTT13=
EXTT14=
EXTT15=
EXTT16=
EXTT17=
EXTT18=
EXTT19=
PLAYORDER=
